<svg width="89" height="80" viewBox="0 0 89 80" fill="none" xmlns="http://www.w3.org/2000/svg">
<path d="M27.0867 22.1621C27.592 22.5328 28.0333 22.8368 28.4533 23.1661C35.4707 28.6768 42.4867 34.1901 49.5027 39.7035C51.8907 41.5795 52.9867 41.5715 55.3947 39.6795C62.776 33.8781 70.16 28.0795 77.5427 22.2781C80.2667 20.1381 82.988 17.9941 85.9027 15.7021H28.5867C28.8093 18.0661 28.4067 20.2381 27.0867 22.1621Z" fill="#9597A7"/>
<path d="M58.0547 61.1448C64.4027 61.1434 79.0481 61.1448 85.3974 61.1421C85.8267 61.1421 86.26 61.1448 86.6867 61.0954C87.8934 60.9554 88.3747 60.4128 88.3827 59.1794C88.396 57.2794 88.388 55.3768 88.388 53.4754C88.388 42.6768 88.388 31.8781 88.388 21.0781V19.6421C85.2707 22.0915 82.3974 24.3461 79.524 26.6021C72.3054 32.2741 65.0907 37.9541 57.8654 43.6154C54.1361 46.5381 50.6521 46.4968 46.9094 43.5514C39.7814 37.9381 32.6494 32.3301 25.5067 26.7341C24.9134 26.2688 24.236 25.9128 23.316 25.3288C22.444 25.8501 20.8094 26.6141 19.4307 27.7035C17.5374 29.1981 17.5907 31.4008 17.948 33.5448C18.08 34.3368 18.4201 35.1328 18.8227 35.8355C22.1401 41.6155 25.5001 47.3728 28.8401 53.1421C29.7774 54.7621 31.1601 55.8488 32.8707 56.5421C34.3921 57.1608 35.8587 57.1115 37.2921 56.2195C38.4481 55.5021 39.6427 54.8488 40.8241 54.1701C44.4281 52.1048 48.204 52.3701 51.448 54.9781C52.3094 55.6714 53.1627 56.4208 53.8427 57.2861C54.8414 58.5581 55.8161 59.8434 56.7387 61.1621C57.1747 61.1354 57.6147 61.1448 58.0547 61.1448Z" fill="#9597A7"/>
<path d="M23.3693 13.9341C21.8439 9.85545 19.8439 6.01544 17.1826 2.55544C16.4946 1.66077 15.5906 0.914122 14.7013 0.203455C14.4213 -0.0192114 13.7866 -0.0658846 13.4559 0.0967821C12.3653 0.630115 11.2706 1.20478 10.2999 1.92611C3.6466 6.86478 0.19861 13.5061 0.00927712 21.7861C-0.154723 28.9248 1.86527 35.5421 5.30527 41.7048C9.09461 48.4928 13.0493 55.1888 17.0079 61.8808C19.1186 65.4474 21.7519 68.6234 24.8266 71.4128C30.2506 76.3341 36.4239 79.5234 43.9239 79.6101C47.6799 79.6074 52.3652 78.4928 55.1132 76.9341C58.3212 75.1141 58.4599 74.8128 57.0826 71.3434C55.6039 67.6194 53.4119 64.2968 50.9986 61.1261C50.2679 60.1648 49.3826 59.2888 48.4479 58.5234C46.5986 57.0101 45.2893 56.9608 43.2266 58.1328C41.8879 58.8941 40.5959 59.7541 39.2039 60.3994C38.1186 60.9048 36.9253 61.3981 35.7573 61.4634C31.0373 61.7261 27.3892 59.6808 24.9826 55.6821C21.4559 49.8181 18.0839 43.8608 14.6666 37.9314C14.2586 37.2221 13.9146 36.4581 13.6639 35.6808C12.3426 31.5728 13.0719 25.3328 18.5866 22.7048C19.7786 22.1355 20.8759 21.3701 22.0373 20.7314C23.6239 19.8568 24.1919 18.4808 23.9759 16.7621C23.8573 15.8088 23.7039 14.8301 23.3693 13.9341Z" fill="#9597A7"/>
</svg>
