<svg width="63" height="82" viewBox="0 0 63 82" fill="none" xmlns="http://www.w3.org/2000/svg">
<path d="M37.9735 53.8382C33.3615 53.8422 29.6028 50.0582 29.6068 45.4768C29.6095 40.8528 33.4082 37.0542 38.0015 37.0822C42.6282 37.1089 46.3842 40.8781 46.3682 45.4755C46.3269 50.1115 42.6335 53.8342 37.9735 53.8382ZM29.2228 38.5475C28.6162 39.3141 28.1175 40.1461 27.7335 41.0448C27.6802 41.1715 27.6282 41.2635 27.4522 41.2662C25.1162 41.3128 22.8268 41.0568 20.6215 40.2408C19.6602 39.8848 18.7508 39.4342 17.9735 38.7462C17.5268 38.3528 17.2015 37.8862 17.0402 37.3102V35.9929C17.6362 36.3089 18.2188 36.6555 18.8308 36.9355C20.4122 37.6595 22.0868 38.0528 23.8055 38.2835C25.1708 38.4662 26.5428 38.5008 27.9175 38.4502C28.3828 38.4328 28.8482 38.3835 29.3468 38.3462L29.2228 38.5475ZM26.9882 52.4328C24.8455 52.4622 22.7495 52.1782 20.7255 51.4528C19.8882 51.1528 19.0895 50.7741 18.3695 50.2421C17.7522 49.7861 17.2442 49.2475 17.0402 48.4795V47.1622C17.9682 47.7302 18.9362 48.2129 19.9682 48.5675C21.5535 49.1142 23.1842 49.4422 24.8535 49.5608C25.7082 49.6208 26.5682 49.6115 27.4255 49.6408L27.6588 49.7369C28.1308 50.5902 28.5908 51.4515 29.0682 52.3395C28.4042 52.3701 27.6962 52.4235 26.9882 52.4328ZM17.0402 41.5489C18.5522 42.5595 20.2322 43.1569 21.9935 43.5515C23.4882 43.8875 25.0042 44.0368 26.5335 44.0635H26.8548V46.8182C26.4375 46.8182 26.0002 46.8408 25.5668 46.8142C23.3975 46.6768 21.2935 46.2662 19.3428 45.2595C18.5495 44.8489 17.8068 44.3582 17.3308 43.5702C17.2015 43.3542 17.1348 43.1022 17.0402 42.8662V41.5489ZM17.0402 31.2955C17.3655 30.0835 18.3162 29.4595 19.3269 28.9195C20.8762 28.0902 22.5615 27.6822 24.2935 27.4675C26.4295 27.2035 28.5602 27.2582 30.6735 27.6849C32.3188 28.0182 33.9055 28.5195 35.2788 29.5328C35.5682 29.7462 35.8348 30.0008 36.0708 30.2728C36.7562 31.0595 36.7468 31.9355 36.0722 32.7302C35.4202 33.4995 34.5722 33.9889 33.6668 34.3875C31.9268 35.1542 30.0895 35.5142 28.2028 35.6355C25.8815 35.7848 23.5895 35.5955 21.3562 34.9061C20.2948 34.5781 19.2775 34.1502 18.3748 33.4862C17.7482 33.0248 17.2295 32.4835 17.0402 31.6968V31.2955ZM62.4935 36.5448C62.5068 32.7528 62.5001 18.2448 62.4948 15.3382C62.4895 12.4222 61.4815 11.4008 58.5349 11.2048C49.2682 10.5902 40.9775 7.54616 33.9602 1.32216C31.9735 -0.440511 30.5748 -0.444501 28.5668 1.33283C21.5455 7.5515 13.2575 10.6048 3.98685 11.2061C1.04685 11.3968 0.020176 12.4355 0.0175093 15.3435C0.012176 25.0022 -0.0344907 34.6608 0.0508427 44.3195C0.072176 46.7848 0.273509 49.3022 0.817509 51.6995C3.67084 64.2542 11.4002 73.0315 22.7762 78.4902C31.9882 82.9115 30.7455 83.0608 39.7709 78.4502C59.7255 68.2568 63.4842 53.5608 62.4935 36.5448Z" fill="#9597A7"/>
</svg>
