<svg width="103" height="90" viewBox="0 0 103 90" fill="none" xmlns="http://www.w3.org/2000/svg">
<path d="M8.7013 20.8202H27.3386L22.9386 34.6428H0.945312L8.7013 20.8202Z" fill="#9597A7"/>
<path d="M49.844 20.8202L49.4906 34.6428H27.4973L31.2066 20.8202H49.844Z" fill="#9597A7"/>
<path d="M76.044 34.6428H54.0507L53.7053 20.8202H72.3427L76.044 34.6428Z" fill="#9597A7"/>
<path d="M94.84 20.8202L102.604 34.6428H80.6054L76.2107 20.8202H94.84Z" fill="#9597A7"/>
<path d="M27.9467 18.9082H9.776L15.2173 9.22018H31.0347L27.9467 18.9082Z" fill="#9597A7"/>
<path d="M49.8853 18.9082H31.7146L34.3199 9.22018H50.1333L49.8853 18.9082Z" fill="#9597A7"/>
<path d="M53.6547 18.9082L53.4147 9.22018H69.2333L71.8253 18.9082H53.6547Z" fill="#9597A7"/>
<path d="M72.5066 9.22018H88.3279L93.7653 18.9082H75.5946L72.5066 9.22018Z" fill="#9597A7"/>
<path d="M15.9946 7.82959L20.028 0.66696H33.7613L31.4813 7.82959H15.9946Z" fill="#9597A7"/>
<path d="M34.6907 7.82959L36.6107 0.66696H50.348L50.172 7.82959H34.6907Z" fill="#9597A7"/>
<path d="M53.192 0.66696H66.9387L68.8587 7.82959H53.3814L53.192 0.66696Z" fill="#9597A7"/>
<path d="M69.7839 0.66696H83.5266L87.5466 7.82959H72.0693L69.7839 0.66696Z" fill="#9597A7"/>
<path d="M76.2106 38.9149C76.2106 41.3895 74.1986 43.4056 71.716 43.4056H55.7039L60.0986 89.8562H43.4493L47.844 43.4056H31.8333C29.3493 43.4056 27.3373 41.3895 27.3373 38.9149V38.4908H76.2106V38.9149Z" fill="#9597A7"/>
</svg>
