<svg id="Ebene_1" data-name="Ebene 1" xmlns="http://www.w3.org/2000/svg" viewBox="0 0 367.63 97.55"><defs><style>.cls-1{fill:#a3a3af;}.cls-2{fill:#0c1838;}</style></defs><title>pv2-energie-logo</title><path class="cls-1" d="M15.8,30H30.56c8.8,0,16.36,3.22,16.36,13.39,0,9.86-7.69,14.14-16.12,14.14H26.46V70.29H15.8Zm14.51,19.1c4.21,0,6.2-2.11,6.2-5.71s-2.36-5-6.45-5h-3.6V49.09Z" transform="translate(-15.8 -1.18)"/><path class="cls-1" d="M48.4,30H59.68L63.9,47.6c1.11,4.28,1.86,8.43,3,12.77h.24C68.24,56,69,51.88,70.1,47.6L74.19,30H85.11L73.2,70.29H60.3Z" transform="translate(-15.8 -1.18)"/><path class="cls-2" d="M94.23,36.57c4.49-4.13,8-7.31,8-9.88a2.21,2.21,0,0,0-2.34-2.52c-1.25,0-2.21.9-3.11,1.8L94,23.22a8.19,8.19,0,0,1,6.58-3.06c3.83,0,6.53,2.46,6.53,6.23,0,3.05-2.87,6.4-5.45,9a30.45,30.45,0,0,1,3.17-.24H108V39.5H94.23Z" transform="translate(-15.8 -1.18)"/><polygon class="cls-2" points="106.02 31.28 122.85 31.28 122.85 27.09 122.85 0 106.02 0 106.02 27.15 106.02 31.28"/><path class="cls-2" d="M178.13,67.39h-15.5c-.11-5.23-.11-10.55-.11-16.32h9l.78,5.72h2.78V42.45h-2.78l-.83,5.78h-9c0-5.22,0-10.37.13-15.44h14.27l1.35,7.75h3.5l-.42-10.82h-30.3V32.2l5.59.65c.11,5.24.13,10.51.13,15.74v3c0,5.32,0,10.57-.13,15.74l-5.59.64v2.48h31.51L183,59.64h-3.51Z" transform="translate(-15.8 -1.18)"/><polygon class="cls-2" points="199.81 35.83 194.29 35.83 194.29 38.25 199.81 38.97 199.8 58.95 181.17 35.83 172.66 35.83 172.66 38.25 176.33 38.76 176.77 39.32 176.77 66.18 172.32 66.85 172.32 69.27 176.77 69.27 179.69 69.27 185.27 69.27 185.27 66.85 179.69 66.08 179.69 43 200.8 69.62 202.79 69.62 202.79 62.64 202.79 38.95 207.24 38.25 207.24 35.83 202.79 35.83 199.81 35.83"/><path class="cls-2" d="M252.67,67.46h-13c-.1-4.18-.13-8.4-.13-12.75h7.5l.68,4.63h2.66V47.2h-2.66L247,51.94h-7.44c0-3.89,0-7.93.12-11.93h11.91l1.18,6.33h3.39L255.77,37H229.08v2.41l4.77.57c.1,4.19.12,8.4.12,12.53v2.4c0,4.22,0,8.42-.12,12.54l-4.77.57v2.41h27.84l.32-9.32h-3.39Z" transform="translate(-15.8 -1.18)"/><path class="cls-2" d="M288.63,61c-1.25-4.35-3.36-6.28-6.63-6.89,6.1-1,9-4.63,9-8.25,0-5.52-4.87-8.79-13.17-8.79h-15v2.41l4.77.57c.09,4.19.12,8.4.12,12.53v2.4c0,4.22,0,8.42-.12,12.54l-4.77.57v2.41h15.3V68l-4.71-.57c-.1-4-.13-8.11-.13-12.45h2.18c4.26,0,6.35.48,7.3,4.63l1.95,7.79c.66,2.75,2.31,3.63,5.79,3.63a12.21,12.21,0,0,0,4-.62V68l-3.89-.52Zm-15.32-8.64c0-4.4,0-8.4.11-12.53h4.33c5.19,0,7.44,2,7.44,6.07,0,3.78-2.44,6.46-8.2,6.46Z" transform="translate(-15.8 -1.18)"/><path class="cls-2" d="M321.54,54.55h-5.38V56.9l5.41.45c.05,2.95.1,5.93.1,8.9v1.14a16.55,16.55,0,0,1-5,.75c-8,0-12.79-5.07-12.79-14.41s5.34-14.52,12.33-14.52a12.09,12.09,0,0,1,5.71,1.48l1,5.16h3.65l-.2-7.44a22.5,22.5,0,0,0-10.65-2.19c-11,0-18.28,7.56-18.28,17.51s7.32,17.52,18,17.52a27.33,27.33,0,0,0,11.79-2.92V66.26c0-2.86,0-6,.13-9.07l3.08-.29V54.55h-8.89Z" transform="translate(-15.8 -1.18)"/><path class="cls-2" d="M338.59,37h-4.7v2.41l4.76.57c.1,4.19.12,8.4.12,12.53v2.4c0,4.22,0,8.42-.11,12.54l-4.77.57v2.41H349.2V68l-4.72-.57c-.1-4.19-.12-8.4-.12-12.54v-2.4c0-4.22,0-8.41.12-12.54l4.72-.56V37H338.59Z" transform="translate(-15.8 -1.18)"/><path class="cls-2" d="M380,61.13l-1.18,6.33h-13c-.1-4.18-.12-8.4-.12-12.75h7.49l.69,4.63h2.66V47.2h-2.66l-.75,4.74h-7.43c0-3.89,0-7.93.12-11.93h11.9l1.18,6.33h3.39L382,37H355.27v2.41L360,40c.1,4.19.12,8.4.12,12.53v2.4c0,4.22,0,8.42-.11,12.54l-4.77.57v2.41h27.84l.32-9.32Z" transform="translate(-15.8 -1.18)"/><polygon class="cls-2" points="106.02 64.42 122.85 64.42 122.85 60.29 122.85 37.13 122.85 33.13 106.02 33.13 106.02 37.07 106.02 60.34 106.02 64.42"/><polygon class="cls-2" points="122.85 66.27 106.02 66.27 106.02 70.26 106.02 97.55 122.85 97.55 122.85 70.32 122.85 66.27"/></svg>