<?xml version="1.0" standalone="no"?>
<!DOCTYPE svg PUBLIC "-//W3C//DTD SVG 20010904//EN"
 "http://www.w3.org/TR/2001/REC-SVG-20010904/DTD/svg10.dtd">
<svg version="1.0" xmlns="http://www.w3.org/2000/svg"
 width="700.000000pt" height="700.000000pt" viewBox="0 0 700.000000 700.000000"
 preserveAspectRatio="xMidYMid meet">
<metadata>
Created by potrace 1.14, written by Peter Selinger 2001-2017
</metadata>
<g transform="translate(0.000000,700.000000) scale(0.100000,-0.100000)"
fill="#000000" stroke="none">
<path d="M3578 6795 c-2 -1 -43 -5 -93 -9 -49 -3 -99 -8 -110 -10 -11 -2 -46
-7 -79 -11 -71 -8 -91 -12 -186 -30 -41 -9 -84 -17 -95 -19 -11 -2 -67 -16
-124 -30 -385 -98 -804 -288 -1130 -513 -687 -477 -1184 -1160 -1415 -1948
-42 -142 -86 -341 -102 -455 -3 -25 -7 -52 -9 -60 -2 -8 -6 -46 -10 -85 -4
-38 -9 -81 -12 -95 -4 -14 -8 -441 -10 -950 l-4 -925 820 1 821 1 0 -821 0
-821 793 1 c696 1 1007 6 1112 18 17 2 57 7 90 10 94 11 320 53 430 81 55 14
109 27 121 30 48 11 294 99 398 142 137 58 339 161 466 238 86 52 238 152 250
165 3 3 39 30 81 61 41 31 82 63 90 70 8 8 41 37 74 64 151 126 361 351 502
535 79 103 233 332 233 346 0 4 6 15 14 23 22 26 140 257 196 386 86 198 162
439 215 678 9 40 27 141 31 167 1 14 5 39 8 55 3 17 8 53 11 80 3 28 8 66 10
85 13 96 16 292 16 1050 0 454 0 833 0 842 -1 16 -50 17 -763 17 -420 0 -789
1 -820 1 l-57 0 0 708 c0 389 0 758 -1 820 l0 112 -879 -1 c-484 0 -881 -2
-883 -4z"/>
</g>
</svg>
